<svg width="301" height="300" viewBox="0 0 301 300" fill="none" xmlns="http://www.w3.org/2000/svg">
<path d="M0.678095 285.646C-1.26092 270.115 13.2729 251.636 13.2729 251.636C16.9925 274.44 25.9368 288.791 29.944 293.116C14.8269 298.031 2.70829 301.907 0.678095 285.646Z" fill="#FF0000"/>
<path d="M19.6705 245.934C19.6705 231.623 34.6584 221.492 42.1523 218.215C43.5478 250.141 58.1093 279.486 65.2156 290.167C48.3155 295.672 39.9558 293.509 37.8885 291.74C29.9423 282.697 19.6705 263.824 19.6705 245.934Z" fill="#FF0000"/>
<path d="M49.1295 213.3C50.6799 204.965 65.5386 200.784 72.7742 199.736C94.287 208.975 112.505 264.217 115.025 269.132C117.04 273.064 123.746 273.916 126.847 273.85C147.158 269.289 146.292 222.54 143.321 199.736C155.569 200.994 162.249 206.551 164.058 209.172C174.446 236.38 164.898 269.787 158.825 283.09C154.639 291.425 145.711 290.888 141.77 289.577C119.288 286.747 97.2588 288.791 89.0542 290.167C77.5807 292.684 74.0662 291.216 73.7432 290.167C52.0366 259.303 47.1914 223.72 49.1295 213.3Z" fill="#FF0000"/>
<path d="M130.917 193.838C101.303 183.615 82.9169 189.579 77.4256 193.838C100.063 212.082 114.249 247.179 118.513 262.448C119.754 266.065 123.811 266.97 125.684 266.97C128.32 267.284 130.271 265.135 130.917 264.021C146.112 220.142 137.248 198.949 130.917 193.838Z" fill="#FF0000"/>
<path d="M193.13 225.096C185.532 218.176 176.527 214.742 172.974 213.89C179.02 248.962 169.033 278.568 163.283 288.988C170.415 291.032 176.204 291.674 178.206 291.74C184.253 291.111 187.574 287.153 188.478 285.252C202.122 249.866 197.264 230.404 193.13 225.096Z" fill="#FF0000"/>
<path d="M220.069 291.74C224.566 273.654 211.348 252.881 204.177 244.755C202.781 269.447 195.843 285.449 192.548 290.364C206.658 298.07 213.027 299.997 214.449 299.997C217.085 300.154 219.294 294.558 220.069 291.74Z" fill="#FF0000"/>
<path d="M237.318 213.89C233.907 226.315 215.741 231.78 207.084 232.959C213.906 241.657 219.488 252.048 221.426 256.157C278.328 251.911 292.295 234.991 292.166 227.062C290.771 214.48 262.643 206.485 248.753 204.061C246.117 206.105 240.032 211.466 237.318 213.89Z" fill="#FF0000"/>
<path d="M144.484 42.4635C140.297 29.0954 157.081 19.9867 165.996 17.1034C151.267 31.2579 155.531 29.2919 156.5 46.1987C157.275 59.7241 146.745 65.0714 141.383 66.0543C143.515 62.5157 149.716 59.1737 144.484 42.4635Z" fill="#FF0000"/>
<path d="M179.175 33.8135C175.919 14.3118 194.486 3.14544 204.177 0C203.595 3.93181 186.734 8.64997 192.548 33.8135C197.2 53.9444 182.858 64.2195 175.105 66.8407C183.633 58.6022 181.372 41.3899 179.175 33.8135Z" fill="#FF0000"/>
<path d="M212.511 41.0874C211.115 26.7756 226.271 19.1348 234.023 17.1034C235.186 17.6931 218.325 24.3772 224.139 42.4635C228.791 56.9325 216.258 64.7437 209.41 66.8407C216.077 61.9653 214.255 47.6404 212.511 41.0874Z" fill="#FF0000"/>
<path fill-rule="evenodd" clip-rule="evenodd" d="M167.934 77.0634C114.908 77.8497 98.1632 94.1667 96.4189 102.227C94.5583 145.005 106.368 173.393 112.505 182.239C126.924 186.643 138.54 191.02 142.546 192.658C119.598 170.483 114.12 140.169 114.249 127.784C117.138 128.009 121.236 129.203 124.974 130.293C127.758 131.104 130.343 131.857 132.08 132.109C135.336 132.58 136.279 134.926 136.344 136.04C138.359 171.269 146.486 190.299 150.298 195.411C174.95 204.218 193.388 217.429 199.525 222.933C225.418 220.732 229.307 212.186 228.015 208.189C232.047 202.685 242.357 193.183 247.009 189.12C289.182 183.301 300.242 152.751 300.5 138.203C300.136 123.244 296.864 120.603 291.488 116.263L291.485 116.261C291.139 115.981 290.785 115.695 290.422 115.398C285.615 111.467 272.527 111.139 266.583 111.467C266.583 99.6713 264.064 96.7224 261.544 94.3633C259.529 92.4761 254.89 89.7762 252.823 88.6622C234.527 77.6532 188.607 76.3426 167.934 77.0634ZM117.156 106.159C118.255 102.358 132.002 94.3633 178.206 92.7906C198.75 93.1183 240.884 96.2506 245.071 106.159C245.264 109.894 232.977 117.758 182.276 119.33C162.12 118.872 120.878 115.595 117.156 106.159ZM284.026 138.203C284.646 154.874 266.842 165.332 257.862 168.478C260.033 162.344 263.805 141.414 265.421 131.715C266.661 129.199 270.718 128.832 272.591 128.963C280.809 129.12 283.639 135.189 284.026 138.203Z" fill="#FF0000"/>
</svg>
