<svg width="31" height="30" viewBox="0 0 31 30" fill="none" xmlns="http://www.w3.org/2000/svg">
<path d="M28.3571 17.1429H17.6429V27.8571C17.6429 28.4255 17.4171 28.9705 17.0152 29.3724C16.6134 29.7742 16.0683 30 15.5 30C14.9317 30 14.3866 29.7742 13.9848 29.3724C13.5829 28.9705 13.3571 28.4255 13.3571 27.8571V17.1429H2.64286C2.07454 17.1429 1.52949 16.9171 1.12763 16.5152C0.725765 16.1134 0.5 15.5683 0.5 15C0.5 14.4317 0.725765 13.8866 1.12763 13.4848C1.52949 13.0829 2.07454 12.8571 2.64286 12.8571H13.3571V2.14286C13.3571 1.57454 13.5829 1.02949 13.9848 0.627628C14.3866 0.225764 14.9317 0 15.5 0C16.0683 0 16.6134 0.225764 17.0152 0.627628C17.4171 1.02949 17.6429 1.57454 17.6429 2.14286V12.8571H28.3571C28.9255 12.8571 29.4705 13.0829 29.8724 13.4848C30.2742 13.8866 30.5 14.4317 30.5 15C30.5 15.5683 30.2742 16.1134 29.8724 16.5152C29.4705 16.9171 28.9255 17.1429 28.3571 17.1429Z" fill="black"/>
</svg>
